<svg xmlns="http://www.w3.org/2000/svg" width="265.129" height="35.543" viewBox="0 0 265.129 35.543">
  <g id="Group_52" data-name="Group 52" transform="translate(-827.231 -2159.708)">
    <path id="Path_144" data-name="Path 144" d="M1544.887,135.143l3.907,7.917a2.363,2.363,0,0,0,1.778,1.292l8.737,1.27a2.361,2.361,0,0,1,1.309,4.028l-6.322,6.163a2.361,2.361,0,0,0-.679,2.09l1.493,8.7a2.361,2.361,0,0,1-3.427,2.489l-7.815-4.108a2.362,2.362,0,0,0-2.2,0l-7.815,4.108a2.361,2.361,0,0,1-3.427-2.489l1.493-8.7a2.361,2.361,0,0,0-.679-2.09l-6.322-6.163a2.361,2.361,0,0,1,1.309-4.028l8.737-1.27a2.363,2.363,0,0,0,1.778-1.292l3.907-7.917A2.361,2.361,0,0,1,1544.887,135.143Z" transform="translate(-696.974 2025.882)" fill="#474202"/>
    <path id="Path_145" data-name="Path 145" d="M1544.887,135.143l3.907,7.917a2.363,2.363,0,0,0,1.778,1.292l8.737,1.27a2.361,2.361,0,0,1,1.309,4.028l-6.322,6.163a2.361,2.361,0,0,0-.679,2.09l1.493,8.7a2.361,2.361,0,0,1-3.427,2.489l-7.815-4.108a2.362,2.362,0,0,0-2.2,0l-7.815,4.108a2.361,2.361,0,0,1-3.427-2.489l1.493-8.7a2.361,2.361,0,0,0-.679-2.09l-6.322-6.163a2.361,2.361,0,0,1,1.309-4.028l8.737-1.27a2.363,2.363,0,0,0,1.778-1.292l3.907-7.917A2.361,2.361,0,0,1,1544.887,135.143Z" transform="translate(-639.974 2025.882)" fill="#474202"/>
    <path id="Path_146" data-name="Path 146" d="M1544.887,135.143l3.907,7.917a2.363,2.363,0,0,0,1.778,1.292l8.737,1.27a2.361,2.361,0,0,1,1.309,4.028l-6.322,6.163a2.361,2.361,0,0,0-.679,2.09l1.493,8.7a2.361,2.361,0,0,1-3.427,2.489l-7.815-4.108a2.362,2.362,0,0,0-2.2,0l-7.815,4.108a2.361,2.361,0,0,1-3.427-2.489l1.493-8.7a2.361,2.361,0,0,0-.679-2.09l-6.322-6.163a2.361,2.361,0,0,1,1.309-4.028l8.737-1.27a2.363,2.363,0,0,0,1.778-1.292l3.907-7.917A2.361,2.361,0,0,1,1544.887,135.143Z" transform="translate(-582.974 2025.882)" fill="#474202"/>
    <path id="Path_147" data-name="Path 147" d="M1544.887,135.143l3.907,7.917a2.363,2.363,0,0,0,1.778,1.292l8.737,1.27a2.361,2.361,0,0,1,1.309,4.028l-6.322,6.163a2.361,2.361,0,0,0-.679,2.09l1.493,8.7a2.361,2.361,0,0,1-3.427,2.489l-7.815-4.108a2.362,2.362,0,0,0-2.2,0l-7.815,4.108a2.361,2.361,0,0,1-3.427-2.489l1.493-8.7a2.361,2.361,0,0,0-.679-2.09l-6.322-6.163a2.361,2.361,0,0,1,1.309-4.028l8.737-1.27a2.363,2.363,0,0,0,1.778-1.292l3.907-7.917A2.361,2.361,0,0,1,1544.887,135.143Z" transform="translate(-525.974 2025.882)" fill="#474202"/>
    <path id="Path_148" data-name="Path 148" d="M1544.887,135.143l3.907,7.917a2.363,2.363,0,0,0,1.778,1.292l8.737,1.27a2.361,2.361,0,0,1,1.309,4.028l-6.322,6.163a2.361,2.361,0,0,0-.679,2.09l1.493,8.7a2.361,2.361,0,0,1-3.427,2.489l-7.815-4.108a2.362,2.362,0,0,0-2.2,0l-7.815,4.108a2.361,2.361,0,0,1-3.427-2.489l1.493-8.7a2.361,2.361,0,0,0-.679-2.09l-6.322-6.163a2.361,2.361,0,0,1,1.309-4.028l8.737-1.27a2.363,2.363,0,0,0,1.778-1.292l3.907-7.917A2.361,2.361,0,0,1,1544.887,135.143Z" transform="translate(-468.974 2025.882)" fill="#474202"/>
  </g>
</svg>
