<svg id="Call_Icon" data-name="Call Icon" xmlns="http://www.w3.org/2000/svg" width="22.06" height="21.224" viewBox="0 0 22.06 21.224">
  <path id="Path_135" data-name="Path 135" d="M1408.293,148.67l-4.478-.672a1.29,1.29,0,0,0-1.052.315l-1.433,1.285a1.286,1.286,0,0,1-1.44.192,17.113,17.113,0,0,1-3.561-2.225,10.287,10.287,0,0,1-2.378-3.979h0l1.77-2.276a1.288,1.288,0,0,0,.229-1.119l-1.129-4.29a1.288,1.288,0,0,0-1.246-.961s-1.08.05-2.291.218a9.342,9.342,0,0,0-2.573.435c-.826.275-1.38,1.6-1.38,3.5a17.09,17.09,0,0,0,17.07,17.07q.707,0,1.409-.058c1.61-.133,2.7-.469,3.179-1.03a1.284,1.284,0,0,0,.4-.931v-4.2A1.289,1.289,0,0,0,1408.293,148.67Z" transform="translate(-1387.331 -134.938)" fill="#f9b877"/>
</svg>
