<svg xmlns="http://www.w3.org/2000/svg" width="539.998" height="1080" viewBox="0 0 539.998 1080">
  <g id="Group_8" data-name="Group 8" transform="translate(-626.055 -310.698)">
    <path id="Path_57" data-name="Path 57" d="M753.286,850.7c0-227.879,185.049-413.34,412.768-414.04V310.7c-298.233,0-540,241.765-540,540s241.765,540,540,540V1264.737C938.334,1264.04,753.286,1078.579,753.286,850.7Z" transform="translate(0 0)" fill="#8c8c48"/>
    <path id="Path_58" data-name="Path 58" d="M713.632,619.107A220.914,220.914,0,0,0,934.206,840.031V703.787a84.685,84.685,0,0,1,0-169.365V398.179C812.548,398.376,713.632,497.4,713.632,619.107Z" transform="translate(231.847 231.593)" fill="#8c8c48"/>
    <path id="Path_59" data-name="Path 59" d="M669.442,736.759c0,210.777,171.134,382.327,381.75,383.023V988.7A251.934,251.934,0,0,1,799.6,736.763c0-138.807,112.831-251.748,251.591-251.945V353.736C840.576,354.436,669.442,525.982,669.442,736.759Z" transform="translate(114.861 113.937)" fill="#8c8c48"/>
  </g>
</svg>
