<svg id="Insta_Icon" data-name="Insta Icon" xmlns="http://www.w3.org/2000/svg" width="23.576" height="23.577" viewBox="0 0 23.576 23.577">
  <g id="Group_46" data-name="Group 46">
    <path id="Path_132" data-name="Path 132" d="M1178.775,146.74a3.929,3.929,0,1,1,3.929,3.93,3.929,3.929,0,0,1-3.929-3.93m-2.125,0a6.054,6.054,0,1,0,6.054-6.053,6.053,6.053,0,0,0-6.054,6.053m10.932-6.293a1.415,1.415,0,1,0,1.415-1.414,1.415,1.415,0,0,0-1.415,1.414m-9.641,15.889a6.506,6.506,0,0,1-2.189-.406,3.9,3.9,0,0,1-2.238-2.237,6.516,6.516,0,0,1-.406-2.189c-.057-1.243-.068-1.616-.068-4.764s.012-3.52.068-4.764a6.55,6.55,0,0,1,.406-2.189,3.9,3.9,0,0,1,2.238-2.237,6.506,6.506,0,0,1,2.189-.406c1.242-.057,1.616-.069,4.763-.069s3.52.012,4.764.069a6.535,6.535,0,0,1,2.189.406,3.9,3.9,0,0,1,2.238,2.237,6.518,6.518,0,0,1,.406,2.189c.057,1.244.069,1.616.069,4.764s-.012,3.52-.069,4.764a6.54,6.54,0,0,1-.406,2.189,3.9,3.9,0,0,1-2.238,2.237,6.506,6.506,0,0,1-2.189.406c-1.242.057-1.616.069-4.764.069s-3.521-.011-4.763-.069m-.1-21.313a8.65,8.65,0,0,0-2.861.548,6.024,6.024,0,0,0-3.448,3.448,8.628,8.628,0,0,0-.548,2.862c-.058,1.257-.071,1.659-.071,4.86s.013,3.6.071,4.86a8.628,8.628,0,0,0,.548,2.862,6.024,6.024,0,0,0,3.448,3.448,8.655,8.655,0,0,0,2.861.548c1.258.057,1.659.071,4.861.071s3.6-.013,4.86-.071a8.651,8.651,0,0,0,2.861-.548,6.025,6.025,0,0,0,3.448-3.448,8.606,8.606,0,0,0,.548-2.862c.057-1.258.07-1.659.07-4.86s-.013-3.6-.07-4.86a8.634,8.634,0,0,0-.548-2.862,6.027,6.027,0,0,0-3.447-3.448,8.636,8.636,0,0,0-2.861-.548c-1.257-.057-1.659-.071-4.86-.071s-3.6.013-4.862.071" transform="translate(-1170.915 -134.952)" fill="#f9b877"/>
  </g>
</svg>
