<svg xmlns="http://www.w3.org/2000/svg" xmlns:xlink="http://www.w3.org/1999/xlink" width="1203" height="1080" viewBox="0 0 1203 1080">
  <defs>
    <clipPath id="clip-path">
      <rect id="Rectangle_37" data-name="Rectangle 37" width="1203" height="1080" transform="translate(717 4029)" fill="#eceae6"/>
    </clipPath>
    <clipPath id="clip-path-2">
      <rect id="Rectangle_10" data-name="Rectangle 10" width="1920" height="1080" transform="translate(0 2160)" fill="#8c8c48"/>
    </clipPath>
  </defs>
  <g id="Mask_Group_15" data-name="Mask Group 15" transform="translate(-717 -4029)" clip-path="url(#clip-path)">
    <g id="Mask_Group_2" data-name="Mask Group 2" transform="translate(0 1869)" clip-path="url(#clip-path-2)">
      <g id="Group_38" data-name="Group 38" transform="translate(-404 -167)">
        <g id="Group_23" data-name="Group 23" transform="translate(404 2327)">
          <g id="Group_22" data-name="Group 22" transform="translate(0 0)">
            <path id="Path_73" data-name="Path 73" d="M1393.061,432.795l-69.324,69.324-69.324-69.324-69.325,69.324-69.324-69.324-69.324,69.324-51.575-51.574V577.417l49.9,49.9,69.324-69.324,69.325,69.324,69.324-69.324,69.324,69.324,69.325-69.324,34.019,34.018V465.14Z" transform="translate(-994.865 12.312)" fill="#c48751"/>
            <path id="Path_74" data-name="Path 74" d="M1114.089,650.673,1183.413,720l69.324-69.324L1322.062,720l69.325-69.324,34.019,34.019v-125.2l-34.019-34.019L1322.062,594.8l-69.324-69.324L1183.413,594.8l-69.325-69.324L1044.765,594.8l-49.9-49.9V670.1l49.9,49.9Z" transform="translate(-994.865 257.791)" fill="#c48751"/>
            <path id="Path_75" data-name="Path 75" d="M1391.386,479.135l-69.325,69.324-69.324-69.324-69.324,69.324-69.325-69.324-69.324,69.324-49.9-49.9v125.2l49.9,49.9,69.324-69.324,69.325,69.324,69.324-69.324,69.324,69.324,69.325-69.324,34.019,34.018v-125.2Z" transform="translate(-994.865 135.051)" fill="#c48751"/>
            <path id="Path_76" data-name="Path 76" d="M1393.061,386.454l-69.324,69.324-69.324-69.324-69.325,69.324-69.324-69.324-69.324,69.324L994.865,404.2V529.4l51.575,51.577,69.324-69.324,69.324,69.324,69.325-69.324,69.324,69.324,69.324-69.324L1425.405,544V418.8Z" transform="translate(-994.865 -110.427)" fill="#c48751"/>
            <path id="Path_77" data-name="Path 77" d="M1391.386,571.816l-69.325,69.324-69.324-69.324-69.324,69.324-69.325-69.324-69.324,69.324-49.9-49.9V699.469h430.541V605.835Z" transform="translate(-994.865 380.531)" fill="#c48751"/>
            <path id="Path_78" data-name="Path 78" d="M1393.061,340.114l-69.324,69.324-69.324-69.324-69.325,69.324-69.324-69.324-69.324,69.324-51.575-51.574v125.2l51.575,51.577,69.324-69.324,69.324,69.324,69.325-69.324,69.324,69.324,69.324-69.324,32.345,32.343v-125.2Z" transform="translate(-994.865 -233.167)" fill="#c48751"/>
            <path id="Path_79" data-name="Path 79" d="M1046.439,443.195l69.324-69.324,69.324,69.324,69.325-69.324,69.324,69.324,69.324-69.324,32.345,32.343V310.8H994.865v80.815Z" transform="translate(-994.865 -310.803)" fill="#c48751"/>
          </g>
        </g>
        <g id="Group_25" data-name="Group 25" transform="translate(2067.784 2327)">
          <g id="Group_24" data-name="Group 24" transform="translate(0 0)">
            <path id="Path_80" data-name="Path 80" d="M1393.061,432.795l-69.324,69.324-69.324-69.324-69.325,69.324-69.324-69.324-69.324,69.324-51.575-51.574V577.417l49.9,49.9,69.324-69.324,69.325,69.324,69.324-69.324,69.324,69.324,69.325-69.324,34.019,34.018V465.14Z" transform="translate(-994.865 12.312)" fill="#f9b877"/>
            <path id="Path_81" data-name="Path 81" d="M1114.089,650.673,1183.413,720l69.324-69.324L1322.062,720l69.325-69.324,34.019,34.019v-125.2l-34.019-34.019L1322.062,594.8l-69.324-69.324L1183.413,594.8l-69.325-69.324L1044.765,594.8l-49.9-49.9V670.1l49.9,49.9Z" transform="translate(-994.865 257.791)" fill="#f9b877"/>
            <path id="Path_82" data-name="Path 82" d="M1391.386,479.135l-69.325,69.324-69.324-69.324-69.324,69.324-69.325-69.324-69.324,69.324-49.9-49.9v125.2l49.9,49.9,69.324-69.324,69.325,69.324,69.324-69.324,69.324,69.324,69.325-69.324,34.019,34.018v-125.2Z" transform="translate(-994.865 135.051)" fill="#f9b877"/>
            <path id="Path_83" data-name="Path 83" d="M1393.061,386.454l-69.324,69.324-69.324-69.324-69.325,69.324-69.324-69.324-69.324,69.324L994.865,404.2V529.4l51.575,51.577,69.324-69.324,69.324,69.324,69.325-69.324,69.324,69.324,69.324-69.324L1425.405,544V418.8Z" transform="translate(-994.865 -110.427)" fill="#f9b877"/>
            <path id="Path_84" data-name="Path 84" d="M1391.386,571.816l-69.325,69.324-69.324-69.324-69.324,69.324-69.325-69.324-69.324,69.324-49.9-49.9V699.469h430.541V605.835Z" transform="translate(-994.865 380.531)" fill="#f9b877"/>
            <path id="Path_85" data-name="Path 85" d="M1393.061,340.114l-69.324,69.324-69.324-69.324-69.325,69.324-69.324-69.324-69.324,69.324-51.575-51.574v125.2l51.575,51.577,69.324-69.324,69.324,69.324,69.325-69.324,69.324,69.324,69.324-69.324,32.345,32.343v-125.2Z" transform="translate(-994.865 -233.167)" fill="#f9b877"/>
            <path id="Path_86" data-name="Path 86" d="M1046.439,443.195l69.324-69.324,69.324,69.324,69.325-69.324,69.324,69.324,69.324-69.324,32.345,32.343V310.8H994.865v80.815Z" transform="translate(-994.865 -310.803)" fill="#f9b877"/>
          </g>
        </g>
        <g id="Group_27" data-name="Group 27" transform="translate(1235.892 2327)">
          <g id="Group_26" data-name="Group 26" transform="translate(0 0)">
            <path id="Path_87" data-name="Path 87" d="M1393.061,432.795l-69.324,69.324-69.324-69.324-69.325,69.324-69.324-69.324-69.324,69.324-51.575-51.574V577.417l49.9,49.9,69.324-69.324,69.325,69.324,69.324-69.324,69.324,69.324,69.325-69.324,34.019,34.018V465.14Z" transform="translate(-994.865 12.312)" fill="#f9b877"/>
            <path id="Path_88" data-name="Path 88" d="M1114.089,650.673,1183.413,720l69.324-69.324L1322.062,720l69.325-69.324,34.019,34.019v-125.2l-34.019-34.019L1322.062,594.8l-69.324-69.324L1183.413,594.8l-69.325-69.324L1044.765,594.8l-49.9-49.9V670.1l49.9,49.9Z" transform="translate(-994.865 257.791)" fill="#f9b877"/>
            <path id="Path_89" data-name="Path 89" d="M1391.386,479.135l-69.325,69.324-69.324-69.324-69.324,69.324-69.325-69.324-69.324,69.324-49.9-49.9v125.2l49.9,49.9,69.324-69.324,69.325,69.324,69.324-69.324,69.324,69.324,69.325-69.324,34.019,34.018v-125.2Z" transform="translate(-994.865 135.051)" fill="#f9b877"/>
            <path id="Path_90" data-name="Path 90" d="M1393.061,386.454l-69.324,69.324-69.324-69.324-69.325,69.324-69.324-69.324-69.324,69.324L994.865,404.2V529.4l51.575,51.577,69.324-69.324,69.324,69.324,69.325-69.324,69.324,69.324,69.324-69.324L1425.405,544V418.8Z" transform="translate(-994.865 -110.427)" fill="#f9b877"/>
            <path id="Path_91" data-name="Path 91" d="M1391.386,571.816l-69.325,69.324-69.324-69.324-69.324,69.324-69.325-69.324-69.324,69.324-49.9-49.9V699.469h430.541V605.835Z" transform="translate(-994.865 380.531)" fill="#f9b877"/>
            <path id="Path_92" data-name="Path 92" d="M1393.061,340.114l-69.324,69.324-69.324-69.324-69.325,69.324-69.324-69.324-69.324,69.324-51.575-51.574v125.2l51.575,51.577,69.324-69.324,69.324,69.324,69.325-69.324,69.324,69.324,69.324-69.324,32.345,32.343v-125.2Z" transform="translate(-994.865 -233.167)" fill="#f9b877"/>
            <path id="Path_93" data-name="Path 93" d="M1046.439,443.195l69.324-69.324,69.324,69.324,69.325-69.324,69.324,69.324,69.324-69.324,32.345,32.343V310.8H994.865v80.815Z" transform="translate(-994.865 -310.803)" fill="#f9b877"/>
          </g>
        </g>
        <g id="Group_29" data-name="Group 29" transform="translate(2899.676 2327)">
          <g id="Group_28" data-name="Group 28" transform="translate(0 0)">
            <path id="Path_94" data-name="Path 94" d="M1393.061,432.795l-69.324,69.324-69.324-69.324-69.325,69.324-69.324-69.324-69.324,69.324-51.575-51.574V577.417l49.9,49.9,69.324-69.324,69.325,69.324,69.324-69.324,69.324,69.324,69.325-69.324,34.019,34.018V465.14Z" transform="translate(-994.865 12.312)" fill="#c48751"/>
            <path id="Path_95" data-name="Path 95" d="M1114.089,650.673,1183.413,720l69.324-69.324L1322.062,720l69.325-69.324,34.019,34.019v-125.2l-34.019-34.019L1322.062,594.8l-69.324-69.324L1183.413,594.8l-69.325-69.324L1044.765,594.8l-49.9-49.9V670.1l49.9,49.9Z" transform="translate(-994.865 257.791)" fill="#c48751"/>
            <path id="Path_96" data-name="Path 96" d="M1391.386,479.135l-69.325,69.324-69.324-69.324-69.324,69.324-69.325-69.324-69.324,69.324-49.9-49.9v125.2l49.9,49.9,69.324-69.324,69.325,69.324,69.324-69.324,69.324,69.324,69.325-69.324,34.019,34.018v-125.2Z" transform="translate(-994.865 135.051)" fill="#c48751"/>
            <path id="Path_97" data-name="Path 97" d="M1393.061,386.454l-69.324,69.324-69.324-69.324-69.325,69.324-69.324-69.324-69.324,69.324L994.865,404.2V529.4l51.575,51.577,69.324-69.324,69.324,69.324,69.325-69.324,69.324,69.324,69.324-69.324L1425.405,544V418.8Z" transform="translate(-994.865 -110.427)" fill="#c48751"/>
            <path id="Path_98" data-name="Path 98" d="M1391.386,571.816l-69.325,69.324-69.324-69.324-69.324,69.324-69.325-69.324-69.324,69.324-49.9-49.9V699.469h430.541V605.835Z" transform="translate(-994.865 380.531)" fill="#c48751"/>
            <path id="Path_99" data-name="Path 99" d="M1393.061,340.114l-69.324,69.324-69.324-69.324-69.325,69.324-69.324-69.324-69.324,69.324-51.575-51.574v125.2l51.575,51.577,69.324-69.324,69.324,69.324,69.325-69.324,69.324,69.324,69.324-69.324,32.345,32.343v-125.2Z" transform="translate(-994.865 -233.167)" fill="#c48751"/>
            <path id="Path_100" data-name="Path 100" d="M1046.439,443.195l69.324-69.324,69.324,69.324,69.325-69.324,69.324,69.324,69.324-69.324,32.345,32.343V310.8H994.865v80.815Z" transform="translate(-994.865 -310.803)" fill="#c48751"/>
          </g>
        </g>
        <g id="Group_31" data-name="Group 31" transform="translate(819.946 2327)">
          <g id="Group_30" data-name="Group 30" transform="translate(0 0)">
            <path id="Path_101" data-name="Path 101" d="M1393.061,432.795l-69.324,69.324-69.324-69.324-69.325,69.324-69.324-69.324-69.324,69.324-51.575-51.574V577.417l49.9,49.9,69.324-69.324,69.325,69.324,69.324-69.324,69.324,69.324,69.325-69.324,34.019,34.018V465.14Z" transform="translate(-994.865 12.312)" fill="#f9b877"/>
            <path id="Path_102" data-name="Path 102" d="M1114.089,650.673,1183.413,720l69.324-69.324L1322.062,720l69.325-69.324,34.019,34.019v-125.2l-34.019-34.019L1322.062,594.8l-69.324-69.324L1183.413,594.8l-69.325-69.324L1044.765,594.8l-49.9-49.9V670.1l49.9,49.9Z" transform="translate(-994.865 257.791)" fill="#f9b877"/>
            <path id="Path_103" data-name="Path 103" d="M1391.386,479.135l-69.325,69.324-69.324-69.324-69.324,69.324-69.325-69.324-69.324,69.324-49.9-49.9v125.2l49.9,49.9,69.324-69.324,69.325,69.324,69.324-69.324,69.324,69.324,69.325-69.324,34.019,34.018v-125.2Z" transform="translate(-994.865 135.051)" fill="#f9b877"/>
            <path id="Path_104" data-name="Path 104" d="M1393.061,386.454l-69.324,69.324-69.324-69.324-69.325,69.324-69.324-69.324-69.324,69.324L994.865,404.2V529.4l51.575,51.577,69.324-69.324,69.324,69.324,69.325-69.324,69.324,69.324,69.324-69.324L1425.405,544V418.8Z" transform="translate(-994.865 -110.427)" fill="#f9b877"/>
            <path id="Path_105" data-name="Path 105" d="M1391.386,571.816l-69.325,69.324-69.324-69.324-69.324,69.324-69.325-69.324-69.324,69.324-49.9-49.9V699.469h430.541V605.835Z" transform="translate(-994.865 380.531)" fill="#f9b877"/>
            <path id="Path_106" data-name="Path 106" d="M1393.061,340.114l-69.324,69.324-69.324-69.324-69.325,69.324-69.324-69.324-69.324,69.324-51.575-51.574v125.2l51.575,51.577,69.324-69.324,69.324,69.324,69.325-69.324,69.324,69.324,69.324-69.324,32.345,32.343v-125.2Z" transform="translate(-994.865 -233.167)" fill="#f9b877"/>
            <path id="Path_107" data-name="Path 107" d="M1046.439,443.195l69.324-69.324,69.324,69.324,69.325-69.324,69.324,69.324,69.324-69.324,32.345,32.343V310.8H994.865v80.815Z" transform="translate(-994.865 -310.803)" fill="#f9b877"/>
          </g>
        </g>
        <g id="Group_33" data-name="Group 33" transform="translate(2483.73 2327)">
          <g id="Group_32" data-name="Group 32" transform="translate(0 0)">
            <path id="Path_108" data-name="Path 108" d="M1393.061,432.795l-69.324,69.324-69.324-69.324-69.325,69.324-69.324-69.324-69.324,69.324-51.575-51.574V577.417l49.9,49.9,69.324-69.324,69.325,69.324,69.324-69.324,69.324,69.324,69.325-69.324,34.019,34.018V465.14Z" transform="translate(-994.865 12.312)" fill="#c48751"/>
            <path id="Path_109" data-name="Path 109" d="M1114.089,650.673,1183.413,720l69.324-69.324L1322.062,720l69.325-69.324,34.019,34.019v-125.2l-34.019-34.019L1322.062,594.8l-69.324-69.324L1183.413,594.8l-69.325-69.324L1044.765,594.8l-49.9-49.9V670.1l49.9,49.9Z" transform="translate(-994.865 257.791)" fill="#c48751"/>
            <path id="Path_110" data-name="Path 110" d="M1391.386,479.135l-69.325,69.324-69.324-69.324-69.324,69.324-69.325-69.324-69.324,69.324-49.9-49.9v125.2l49.9,49.9,69.324-69.324,69.325,69.324,69.324-69.324,69.324,69.324,69.325-69.324,34.019,34.018v-125.2Z" transform="translate(-994.865 135.051)" fill="#c48751"/>
            <path id="Path_111" data-name="Path 111" d="M1393.061,386.454l-69.324,69.324-69.324-69.324-69.325,69.324-69.324-69.324-69.324,69.324L994.865,404.2V529.4l51.575,51.577,69.324-69.324,69.324,69.324,69.325-69.324,69.324,69.324,69.324-69.324L1425.405,544V418.8Z" transform="translate(-994.865 -110.427)" fill="#c48751"/>
            <path id="Path_112" data-name="Path 112" d="M1391.386,571.816l-69.325,69.324-69.324-69.324-69.324,69.324-69.325-69.324-69.324,69.324-49.9-49.9V699.469h430.541V605.835Z" transform="translate(-994.865 380.531)" fill="#c48751"/>
            <path id="Path_113" data-name="Path 113" d="M1393.061,340.114l-69.324,69.324-69.324-69.324-69.325,69.324-69.324-69.324-69.324,69.324-51.575-51.574v125.2l51.575,51.577,69.324-69.324,69.324,69.324,69.325-69.324,69.324,69.324,69.324-69.324,32.345,32.343v-125.2Z" transform="translate(-994.865 -233.167)" fill="#c48751"/>
            <path id="Path_114" data-name="Path 114" d="M1046.439,443.195l69.324-69.324,69.324,69.324,69.325-69.324,69.324,69.324,69.324-69.324,32.345,32.343V310.8H994.865v80.815Z" transform="translate(-994.865 -310.803)" fill="#c48751"/>
          </g>
        </g>
        <g id="Group_35" data-name="Group 35" transform="translate(1651.838 2327)">
          <g id="Group_34" data-name="Group 34" transform="translate(0 0)">
            <path id="Path_115" data-name="Path 115" d="M1393.061,432.795l-69.324,69.324-69.324-69.324-69.325,69.324-69.324-69.324-69.324,69.324-51.575-51.574V577.417l49.9,49.9,69.324-69.324,69.325,69.324,69.324-69.324,69.324,69.324,69.325-69.324,34.019,34.018V465.14Z" transform="translate(-994.865 12.312)" fill="#f9b877"/>
            <path id="Path_116" data-name="Path 116" d="M1114.089,650.673,1183.413,720l69.324-69.324L1322.062,720l69.325-69.324,34.019,34.019v-125.2l-34.019-34.019L1322.062,594.8l-69.324-69.324L1183.413,594.8l-69.325-69.324L1044.765,594.8l-49.9-49.9V670.1l49.9,49.9Z" transform="translate(-994.865 257.791)" fill="#f9b877"/>
            <path id="Path_117" data-name="Path 117" d="M1391.386,479.135l-69.325,69.324-69.324-69.324-69.324,69.324-69.325-69.324-69.324,69.324-49.9-49.9v125.2l49.9,49.9,69.324-69.324,69.325,69.324,69.324-69.324,69.324,69.324,69.325-69.324,34.019,34.018v-125.2Z" transform="translate(-994.865 135.051)" fill="#f9b877"/>
            <path id="Path_118" data-name="Path 118" d="M1393.061,386.454l-69.324,69.324-69.324-69.324-69.325,69.324-69.324-69.324-69.324,69.324L994.865,404.2V529.4l51.575,51.577,69.324-69.324,69.324,69.324,69.325-69.324,69.324,69.324,69.324-69.324L1425.405,544V418.8Z" transform="translate(-994.865 -110.427)" fill="#f9b877"/>
            <path id="Path_119" data-name="Path 119" d="M1391.386,571.816l-69.325,69.324-69.324-69.324-69.324,69.324-69.325-69.324-69.324,69.324-49.9-49.9V699.469h430.541V605.835Z" transform="translate(-994.865 380.531)" fill="#f9b877"/>
            <path id="Path_120" data-name="Path 120" d="M1393.061,340.114l-69.324,69.324-69.324-69.324-69.325,69.324-69.324-69.324-69.324,69.324-51.575-51.574v125.2l51.575,51.577,69.324-69.324,69.324,69.324,69.325-69.324,69.324,69.324,69.324-69.324,32.345,32.343v-125.2Z" transform="translate(-994.865 -233.167)" fill="#f9b877"/>
            <path id="Path_121" data-name="Path 121" d="M1046.439,443.195l69.324-69.324,69.324,69.324,69.325-69.324,69.324,69.324,69.324-69.324,32.345,32.343V310.8H994.865v80.815Z" transform="translate(-994.865 -310.803)" fill="#f9b877"/>
          </g>
        </g>
        <g id="Group_37" data-name="Group 37" transform="translate(3315.623 2327)">
          <g id="Group_36" data-name="Group 36" transform="translate(0 0)">
            <path id="Path_122" data-name="Path 122" d="M1393.061,432.795l-69.324,69.324-69.324-69.324-69.325,69.324-69.324-69.324-69.324,69.324-51.575-51.574V577.417l49.9,49.9,69.324-69.324,69.325,69.324,69.324-69.324,69.324,69.324,69.325-69.324,34.019,34.018V465.14Z" transform="translate(-994.865 12.312)" fill="#c48751"/>
            <path id="Path_123" data-name="Path 123" d="M1114.089,650.673,1183.413,720l69.324-69.324L1322.062,720l69.325-69.324,34.019,34.019v-125.2l-34.019-34.019L1322.062,594.8l-69.324-69.324L1183.413,594.8l-69.325-69.324L1044.765,594.8l-49.9-49.9V670.1l49.9,49.9Z" transform="translate(-994.865 257.791)" fill="#c48751"/>
            <path id="Path_124" data-name="Path 124" d="M1391.386,479.135l-69.325,69.324-69.324-69.324-69.324,69.324-69.325-69.324-69.324,69.324-49.9-49.9v125.2l49.9,49.9,69.324-69.324,69.325,69.324,69.324-69.324,69.324,69.324,69.325-69.324,34.019,34.018v-125.2Z" transform="translate(-994.865 135.051)" fill="#c48751"/>
            <path id="Path_125" data-name="Path 125" d="M1393.061,386.454l-69.324,69.324-69.324-69.324-69.325,69.324-69.324-69.324-69.324,69.324L994.865,404.2V529.4l51.575,51.577,69.324-69.324,69.324,69.324,69.325-69.324,69.324,69.324,69.324-69.324L1425.405,544V418.8Z" transform="translate(-994.865 -110.427)" fill="#c48751"/>
            <path id="Path_126" data-name="Path 126" d="M1391.386,571.816l-69.325,69.324-69.324-69.324-69.324,69.324-69.325-69.324-69.324,69.324-49.9-49.9V699.469h430.541V605.835Z" transform="translate(-994.865 380.531)" fill="#c48751"/>
            <path id="Path_127" data-name="Path 127" d="M1393.061,340.114l-69.324,69.324-69.324-69.324-69.325,69.324-69.324-69.324-69.324,69.324-51.575-51.574v125.2l51.575,51.577,69.324-69.324,69.324,69.324,69.325-69.324,69.324,69.324,69.324-69.324,32.345,32.343v-125.2Z" transform="translate(-994.865 -233.167)" fill="#c48751"/>
            <path id="Path_128" data-name="Path 128" d="M1046.439,443.195l69.324-69.324,69.324,69.324,69.325-69.324,69.324,69.324,69.324-69.324,32.345,32.343V310.8H994.865v80.815Z" transform="translate(-994.865 -310.803)" fill="#c48751"/>
          </g>
        </g>
      </g>
    </g>
  </g>
</svg>
