<svg xmlns="http://www.w3.org/2000/svg" width="401.107" height="46.345" viewBox="0 0 401.107 46.345">
  <g id="Group_330" data-name="Group 330" transform="translate(-759.3 -57)">
    <g id="CBLandscapes_Logo-rgb" data-name="CBLandscapes Logo-rgb" transform="translate(759.3 57)">
      <g id="Group_4" data-name="Group 4" transform="translate(52.314)">
        <g id="Group_1" data-name="Group 1" transform="translate(18.657)">
          <path id="Path_1" data-name="Path 1" d="M337.732,32.13a5.933,5.933,0,1,0,.065-11.865L327.5,20.2v3.462l10.1.022a2.556,2.556,0,0,1,2.525,2.525,2.437,2.437,0,0,1-.762,1.763,2.575,2.575,0,0,1-1.785.718h-.022L327.5,28.669v3.4l10.189.065Z" transform="translate(-327.478 -15.802)" fill="#f9b877"/>
          <path id="Path_2" data-name="Path 2" d="M337.48,44.369a1.233,1.233,0,0,0,.893-.37,1.349,1.349,0,0,0,.392-.893,1.3,1.3,0,0,0-1.263-1.284L327.4,41.8v2.525l10.08.044Z" transform="translate(-327.4 -32.7)" fill="#f9b877"/>
          <path id="Path_3" data-name="Path 3" d="M337.915,0H327.4V3.157l10.319.065a7.184,7.184,0,1,1-.065,14.369h-.065L327.4,17.525V20.9l10.319.087a10.52,10.52,0,0,0,10.668-10.341A10.583,10.583,0,0,0,337.915,0Z" transform="translate(-327.4)" fill="#f9b877"/>
        </g>
        <g id="Group_2" data-name="Group 2" transform="translate(18.657 22.206)">
          <path id="Path_4" data-name="Path 4" d="M337.732,134.13a5.933,5.933,0,1,0,.065-11.865l-10.3-.065v3.461l10.1.022a2.556,2.556,0,0,1,2.525,2.525,2.437,2.437,0,0,1-.762,1.763,2.575,2.575,0,0,1-1.785.718h-.022l-10.058-.022v3.4l10.189.065Z" transform="translate(-327.478 -117.802)" fill="#f9b877"/>
          <path id="Path_5" data-name="Path 5" d="M337.48,146.369a1.233,1.233,0,0,0,.893-.37,1.349,1.349,0,0,0,.392-.893,1.3,1.3,0,0,0-1.263-1.284l-10.1-.022v2.525l10.08.044Z" transform="translate(-327.4 -134.7)" fill="#f9b877"/>
          <path id="Path_6" data-name="Path 6" d="M337.915,102H327.4v3.157l10.319.065a7.184,7.184,0,1,1-.065,14.368h-.065l-10.189-.065V122.9l10.319.087a10.494,10.494,0,1,0,.2-20.987Z" transform="translate(-327.4 -102)" fill="#f9b877"/>
        </g>
        <g id="Group_3" data-name="Group 3">
          <path id="Path_7" data-name="Path 7" d="M257.68,81.6l-2.787,2.787L252.106,81.6l-2.787,2.787L246.533,81.6l-2.765,2.787L241.7,82.318v5.138l2,2,2.765-2.787,2.787,2.787,2.787-2.787,2.787,2.787,2.787-2.787,1.35,1.372V82.906Z" transform="translate(-241.7 -63.835)" fill="#f9b877"/>
          <path id="Path_8" data-name="Path 8" d="M257.68,50.6l-2.787,2.765L252.106,50.6l-2.787,2.765L246.533,50.6l-2.765,2.765L241.7,51.3v5.073l2.068,2.068,2.765-2.765,2.787,2.765,2.787-2.765,2.787,2.765,2.787-2.765,1.284,1.284V51.884Z" transform="translate(-241.7 -39.584)" fill="#f9b877"/>
          <path id="Path_9" data-name="Path 9" d="M246.468,148.851l2.787,2.787,2.787-2.787,2.787,2.787,2.787-2.787,1.35,1.372V145.15l-1.35-1.35-2.787,2.765-2.787-2.765-2.787,2.765-2.787-2.765-2.765,2.765-2-2v5.073l2,2Z" transform="translate(-241.7 -112.494)" fill="#f9b877"/>
          <path id="Path_10" data-name="Path 10" d="M257.614,112.7l-2.787,2.765-2.787-2.765-2.787,2.765-2.787-2.765-2.765,2.765-2-1.981v5.073l2,1.981,2.765-2.765,2.787,2.765,2.787-2.765,2.787,2.765,2.787-2.765,1.35,1.35v-5.051Z" transform="translate(-241.7 -88.165)" fill="#f9b877"/>
          <path id="Path_11" data-name="Path 11" d="M257.614,174.8l-2.787,2.787-2.787-2.787-2.787,2.787-2.787-2.787-2.765,2.787-2-2v4.354h17.264v-3.766Z" transform="translate(-241.7 -136.745)" fill="#f9b877"/>
          <path id="Path_12" data-name="Path 12" d="M257.68,19.5l-2.787,2.765L252.106,19.5l-2.787,2.765L246.533,19.5l-2.765,2.765L241.7,20.218v5.073l2.068,2.046,2.765-2.765,2.787,2.765,2.787-2.765,2.787,2.765,2.787-2.765,1.284,1.284V20.806Z" transform="translate(-241.7 -15.255)" fill="#f9b877"/>
          <path id="Path_13" data-name="Path 13" d="M243.768,5.334l2.765-2.787,2.787,2.787,2.787-2.787,2.787,2.787,2.787-2.787,1.284,1.306V0H241.7V3.266Z" transform="translate(-241.7)" fill="#f9b877"/>
        </g>
      </g>
      <g id="Group_5" data-name="Group 5" transform="translate(0)">
        <path id="Path_14" data-name="Path 14" d="M6.494,21.6A16.59,16.59,0,0,1,23,5.029V0a21.6,21.6,0,1,0,0,43.193V38.164A16.576,16.576,0,0,1,6.494,21.6Z" transform="translate(-1.4)" fill="#f9b877"/>
        <path id="Path_15" data-name="Path 15" d="M60.1,67.439a8.845,8.845,0,0,0,8.817,8.839V70.835a3.4,3.4,0,0,1,0-6.792V58.6A8.869,8.869,0,0,0,60.1,67.439Z" transform="translate(-47.321 -45.843)" fill="#f9b877"/>
        <path id="Path_16" data-name="Path 16" d="M30.5,44.126A15.349,15.349,0,0,0,45.761,59.453V54.206a10.08,10.08,0,0,1-.022-20.159V28.8A15.345,15.345,0,0,0,30.5,44.126Z" transform="translate(-24.165 -22.53)" fill="#f9b877"/>
        <rect id="Rectangle_1" data-name="Rectangle 1" width="18.2" height="5.029" transform="translate(22.99)" fill="#f9b877"/>
        <rect id="Rectangle_2" data-name="Rectangle 2" width="18.2" height="5.247" transform="translate(22.99 6.27)" fill="#f9b877"/>
        <path id="Path_17" data-name="Path 17" d="M119.779,64.143H107V58.7h18.2A5.44,5.44,0,0,1,119.779,64.143Z" transform="translate(-84.01 -45.921)" fill="#f9b877"/>
        <rect id="Rectangle_3" data-name="Rectangle 3" width="18.2" height="5.029" transform="translate(22.99 38.164)" fill="#f9b877"/>
        <rect id="Rectangle_4" data-name="Rectangle 4" width="18.2" height="5.247" transform="translate(22.99 31.676)" fill="#f9b877"/>
        <path id="Path_18" data-name="Path 18" d="M119.779,114.8H107v5.443h18.2A5.426,5.426,0,0,0,119.779,114.8Z" transform="translate(-84.01 -89.808)" fill="#f9b877"/>
      </g>
    </g>
    <g id="Group_329" data-name="Group 329" transform="translate(866.81 57.207)">
      <g id="Group_6" data-name="Group 6" transform="translate(0)">
        <path id="Path_19" data-name="Path 19" d="M6.383,252.324a11.259,11.259,0,0,1-4.626-4.35A12.105,12.105,0,0,1,.1,241.622a12.281,12.281,0,0,1,1.657-6.353,11.7,11.7,0,0,1,4.626-4.35,14.276,14.276,0,0,1,6.7-1.519,15.378,15.378,0,0,1,6.076,1.174,11.485,11.485,0,0,1,4.419,3.452l-4.972,4.419a6.538,6.538,0,0,0-5.11-2.762,5.409,5.409,0,0,0-4,1.588,6.1,6.1,0,0,0-1.519,4.281,5.912,5.912,0,0,0,1.519,4.281,5.3,5.3,0,0,0,4,1.588,6.346,6.346,0,0,0,5.11-2.762l4.972,4.419a10.868,10.868,0,0,1-4.419,3.452,14.252,14.252,0,0,1-6.076,1.174A11.97,11.97,0,0,1,6.383,252.324Z" transform="translate(-0.1 -229.331)" fill="#f9b877"/>
        <path id="Path_20" data-name="Path 20" d="M59.189,243.7a5.5,5.5,0,0,1,1.1,3.522,5.3,5.3,0,0,1-2.555,4.764c-1.657,1.1-4.143,1.657-7.319,1.657H37.3V230.3H49.8q4.661,0,7.043,1.657a5.224,5.224,0,0,1,2.417,4.419,5.387,5.387,0,0,1-3.245,5.041A6.876,6.876,0,0,1,59.189,243.7Zm-14.155-7.941v3.452h3.66c1.726,0,2.555-.552,2.555-1.726s-.829-1.726-2.555-1.726Zm7.388,10.564c0-1.243-.9-1.864-2.624-1.864H45.033v3.66H49.8C51.524,248.115,52.422,247.493,52.422,246.319Z" transform="translate(-11.614 -229.609)" fill="#f9b877"/>
        <path id="Path_21" data-name="Path 21" d="M74.7,230.3h7.872v17.262H93.136v6.076H74.7Z" transform="translate(-23.189 -229.609)" fill="#f9b877"/>
        <path id="Path_22" data-name="Path 22" d="M119.705,249.565H110.8l-1.588,4.074H101.2L111.419,230.3h7.734l10.219,23.339h-8.148Zm-2.141-5.662-2.279-5.869-2.279,5.869Z" transform="translate(-31.391 -229.609)" fill="#f9b877"/>
        <path id="Path_23" data-name="Path 23" d="M166.962,230.3v23.339h-6.491l-8.907-10.634v10.634H143.9V230.3h6.491l8.907,10.634V230.3Z" transform="translate(-44.607 -229.609)" fill="#f9b877"/>
        <path id="Path_24" data-name="Path 24" d="M182.8,230.3h11.531a15.626,15.626,0,0,1,6.9,1.45,10.65,10.65,0,0,1,4.626,4.074,11.284,11.284,0,0,1,1.657,6.214,11.615,11.615,0,0,1-1.657,6.214,11.1,11.1,0,0,1-4.626,4.074,15.626,15.626,0,0,1-6.9,1.45H182.8Zm11.186,17.193a5.769,5.769,0,0,0,4.074-1.45,6.222,6.222,0,0,0,0-8.148,5.655,5.655,0,0,0-4.074-1.45h-3.314v11.048Z" transform="translate(-56.647 -229.609)" fill="#f9b877"/>
        <path id="Path_25" data-name="Path 25" d="M225.088,253.191a15.23,15.23,0,0,1-4.488-1.726l2.555-5.731a15.066,15.066,0,0,0,3.729,1.519,13.655,13.655,0,0,0,4,.552,6.2,6.2,0,0,0,2.348-.345,1.008,1.008,0,0,0,.69-.967c0-.483-.276-.829-.9-1.1a21.033,21.033,0,0,0-3.038-.829,24.043,24.043,0,0,1-4.488-1.243,7.414,7.414,0,0,1-3.107-2.141,5.72,5.72,0,0,1-1.312-4,6.876,6.876,0,0,1,1.243-4,8.564,8.564,0,0,1,3.66-2.831,15.239,15.239,0,0,1,5.938-1.036,21.254,21.254,0,0,1,4.7.483,14.255,14.255,0,0,1,4.074,1.519l-2.348,5.731a14.283,14.283,0,0,0-6.491-1.726c-2,0-3.038.483-3.038,1.45,0,.483.276.829.9,1.036a24.946,24.946,0,0,0,2.969.76,24.514,24.514,0,0,1,4.488,1.174,7.633,7.633,0,0,1,3.176,2.141,5.752,5.752,0,0,1,1.381,4,6.876,6.876,0,0,1-1.243,4,8.563,8.563,0,0,1-3.66,2.831,15.238,15.238,0,0,1-5.938,1.036A17.841,17.841,0,0,1,225.088,253.191Z" transform="translate(-68.347 -229.3)" fill="#f9b877"/>
        <path id="Path_26" data-name="Path 26" d="M259.483,252.324a11.258,11.258,0,0,1-4.626-4.35,12.105,12.105,0,0,1-1.657-6.352,12.281,12.281,0,0,1,1.657-6.353,11.7,11.7,0,0,1,4.626-4.35,14.276,14.276,0,0,1,6.7-1.519,15.378,15.378,0,0,1,6.076,1.174,11.485,11.485,0,0,1,4.419,3.452l-4.972,4.419a6.538,6.538,0,0,0-5.11-2.762,5.409,5.409,0,0,0-4,1.588,6.1,6.1,0,0,0-1.519,4.281,5.912,5.912,0,0,0,1.519,4.281,5.3,5.3,0,0,0,4,1.588,6.346,6.346,0,0,0,5.11-2.762l4.972,4.419a10.869,10.869,0,0,1-4.419,3.452,14.252,14.252,0,0,1-6.076,1.174A11.97,11.97,0,0,1,259.483,252.324Z" transform="translate(-78.437 -229.331)" fill="#f9b877"/>
        <path id="Path_27" data-name="Path 27" d="M304.705,249.565H295.8l-1.588,4.074H286.2L296.419,230.3h7.733l10.219,23.339h-8.148ZM302.5,243.9l-2.279-5.869-2.279,5.869Z" transform="translate(-88.651 -229.609)" fill="#f9b877"/>
        <path id="Path_28" data-name="Path 28" d="M345.717,231.3a8.569,8.569,0,0,1,3.729,3.038,8.143,8.143,0,0,1,1.312,4.7,8.3,8.3,0,0,1-1.312,4.7,8.193,8.193,0,0,1-3.729,3.038,14.054,14.054,0,0,1-5.662,1.036h-3.383v5.731H328.8V230.2h11.255A15.294,15.294,0,0,1,345.717,231.3Zm-3.729,9.8a2.554,2.554,0,0,0,.829-2,2.459,2.459,0,0,0-.829-2,3.486,3.486,0,0,0-2.417-.69h-2.9v5.455h2.9A4.349,4.349,0,0,0,341.988,241.11Z" transform="translate(-101.836 -229.579)" fill="#f9b877"/>
        <path id="Path_29" data-name="Path 29" d="M383.7,247.7v5.938H364.3V230.3h18.988v5.938H372.034V239h9.874v5.662h-9.874V247.7Z" transform="translate(-112.823 -229.609)" fill="#f9b877"/>
        <path id="Path_30" data-name="Path 30" d="M399.188,253.191a15.23,15.23,0,0,1-4.488-1.726l2.555-5.731a15.066,15.066,0,0,0,3.729,1.519,13.655,13.655,0,0,0,4,.552,6.2,6.2,0,0,0,2.348-.345,1.008,1.008,0,0,0,.69-.967c0-.483-.276-.829-.9-1.1a21.033,21.033,0,0,0-3.038-.829,24.043,24.043,0,0,1-4.488-1.243,7.414,7.414,0,0,1-3.107-2.141,5.72,5.72,0,0,1-1.312-4,6.876,6.876,0,0,1,1.243-4,8.563,8.563,0,0,1,3.66-2.831,15.239,15.239,0,0,1,5.938-1.036,21.253,21.253,0,0,1,4.7.483,14.254,14.254,0,0,1,4.074,1.519l-2.348,5.731a14.283,14.283,0,0,0-6.491-1.726c-2,0-3.038.483-3.038,1.45,0,.483.276.829.9,1.036a24.945,24.945,0,0,0,2.969.76,24.514,24.514,0,0,1,4.488,1.174,7.634,7.634,0,0,1,3.176,2.141,5.752,5.752,0,0,1,1.381,4,6.876,6.876,0,0,1-1.243,4,8.563,8.563,0,0,1-3.66,2.831,15.239,15.239,0,0,1-5.938,1.036A17.841,17.841,0,0,1,399.188,253.191Z" transform="translate(-122.232 -229.3)" fill="#f9b877"/>
        <path id="Path_31" data-name="Path 31" d="M2.833,290.593A5.616,5.616,0,0,1,.9,289.626l.69-1.657a5.814,5.814,0,0,0,1.726.9,6.779,6.779,0,0,0,2,.345,3.39,3.39,0,0,0,1.864-.414,1.217,1.217,0,0,0,.621-1.036,1.143,1.143,0,0,0-.345-.829,2.756,2.756,0,0,0-.9-.483,9.832,9.832,0,0,0-1.45-.414,15.533,15.533,0,0,1-2.071-.621,3.852,3.852,0,0,1-1.381-.967,2.442,2.442,0,0,1-.552-1.8,3.117,3.117,0,0,1,.483-1.726,3.988,3.988,0,0,1,1.519-1.243A6.635,6.635,0,0,1,5.6,279.2a6.384,6.384,0,0,1,2,.276,4.385,4.385,0,0,1,1.726.76l-.69,1.657a14.765,14.765,0,0,0-1.519-.69A6.268,6.268,0,0,0,5.526,281a3.39,3.39,0,0,0-1.864.414,1.244,1.244,0,0,0-.621,1.1.989.989,0,0,0,.345.76,2.757,2.757,0,0,0,.9.483,9.831,9.831,0,0,0,1.45.414,19.487,19.487,0,0,1,2.071.621,3.852,3.852,0,0,1,1.381.967,2.37,2.37,0,0,1,.552,1.726,2.753,2.753,0,0,1-.483,1.657,3.336,3.336,0,0,1-1.519,1.174,6.635,6.635,0,0,1-2.486.483A5.67,5.67,0,0,1,2.833,290.593Z" transform="translate(-0.348 -244.744)" fill="#f9b877"/>
        <path id="Path_32" data-name="Path 32" d="M25.081,280.183a3.56,3.56,0,0,1,2.21,3.521,4.286,4.286,0,0,1-.552,2.141,3.592,3.592,0,0,1-1.657,1.381,5.823,5.823,0,0,1-2.555.483H19.971v3.245H17.9V279.7h4.626A6.026,6.026,0,0,1,25.081,280.183Zm-.621,5.179a2.334,2.334,0,0,0,0-3.314,3.087,3.087,0,0,0-2.071-.552H19.971v4.488h2.417A3.875,3.875,0,0,0,24.46,285.362Z" transform="translate(-5.609 -244.899)" fill="#f9b877"/>
        <path id="Path_33" data-name="Path 33" d="M43.924,289.129v1.726H35.5V279.6h8.217v1.726H37.571v2.9h5.455v1.726H37.571v3.107l6.353.069Z" transform="translate(-11.057 -244.868)" fill="#f9b877"/>
        <path id="Path_34" data-name="Path 34" d="M53.8,290.241a5.159,5.159,0,0,1-2.141-2.072,5.447,5.447,0,0,1-.76-2.969,6.121,6.121,0,0,1,.76-2.969A5.6,5.6,0,0,1,53.8,280.16a6.466,6.466,0,0,1,3.107-.76,6.242,6.242,0,0,1,2.555.483,5.517,5.517,0,0,1,1.933,1.381l-1.381,1.243a3.879,3.879,0,0,0-3.038-1.312,4.17,4.17,0,0,0-2.071.483,3.988,3.988,0,0,0-1.45,1.381,4.681,4.681,0,0,0,0,4.143,3.117,3.117,0,0,0,1.45,1.381,4.171,4.171,0,0,0,2.071.483,3.979,3.979,0,0,0,3.038-1.312l1.381,1.312a4.763,4.763,0,0,1-1.933,1.381,6.027,6.027,0,0,1-2.555.483A5.187,5.187,0,0,1,53.8,290.241Z" transform="translate(-15.823 -244.806)" fill="#f9b877"/>
        <path id="Path_35" data-name="Path 35" d="M69.9,279.7h2.071v11.255H69.9Z" transform="translate(-21.704 -244.899)" fill="#f9b877"/>
        <path id="Path_36" data-name="Path 36" d="M84.807,288.331H79.145l-1.1,2.624H75.9L80.941,279.7h2.071l5.11,11.255h-2.21Zm-.69-1.657-2.141-4.9-2.141,4.9Z" transform="translate(-23.561 -244.899)" fill="#f9b877"/>
        <path id="Path_37" data-name="Path 37" d="M96.7,279.7h2.071v9.529h5.869v1.8H96.7Z" transform="translate(-29.999 -244.899)" fill="#f9b877"/>
        <path id="Path_38" data-name="Path 38" d="M111.6,279.7h2.071v11.255H111.6Z" transform="translate(-34.61 -244.899)" fill="#f9b877"/>
        <path id="Path_39" data-name="Path 39" d="M120.433,290.593a5.616,5.616,0,0,1-1.933-.967l.69-1.657a5.814,5.814,0,0,0,1.726.9,6.779,6.779,0,0,0,2,.345,3.39,3.39,0,0,0,1.864-.414,1.217,1.217,0,0,0,.621-1.036,1.143,1.143,0,0,0-.345-.829,2.756,2.756,0,0,0-.9-.483,9.831,9.831,0,0,0-1.45-.414,15.533,15.533,0,0,1-2.071-.621,3.852,3.852,0,0,1-1.381-.967,2.442,2.442,0,0,1-.552-1.8,3.117,3.117,0,0,1,.483-1.726,3.988,3.988,0,0,1,1.519-1.243,6.635,6.635,0,0,1,2.486-.483,6.384,6.384,0,0,1,2,.276,4.385,4.385,0,0,1,1.726.76l-.69,1.657a14.764,14.764,0,0,0-1.519-.69,6.268,6.268,0,0,0-1.588-.207,3.39,3.39,0,0,0-1.864.414,1.244,1.244,0,0,0-.621,1.1.989.989,0,0,0,.345.76,2.757,2.757,0,0,0,.9.483,9.831,9.831,0,0,0,1.45.414,19.488,19.488,0,0,1,2.071.621,3.852,3.852,0,0,1,1.381.967,2.37,2.37,0,0,1,.552,1.726,2.753,2.753,0,0,1-.483,1.657,3.336,3.336,0,0,1-1.519,1.174,6.635,6.635,0,0,1-2.486.483A5.859,5.859,0,0,1,120.433,290.593Z" transform="translate(-36.746 -244.744)" fill="#f9b877"/>
        <path id="Path_40" data-name="Path 40" d="M136.929,281.4H133.2v-1.8h9.6v1.8h-3.729v9.529H137V281.4Z" transform="translate(-41.296 -244.868)" fill="#f9b877"/>
        <path id="Path_41" data-name="Path 41" d="M150.633,290.593a5.616,5.616,0,0,1-1.933-.967l.69-1.657a5.814,5.814,0,0,0,1.726.9,6.779,6.779,0,0,0,2,.345,3.39,3.39,0,0,0,1.864-.414,1.217,1.217,0,0,0,.621-1.036,1.143,1.143,0,0,0-.345-.829,2.756,2.756,0,0,0-.9-.483,9.832,9.832,0,0,0-1.45-.414,15.534,15.534,0,0,1-2.071-.621,3.852,3.852,0,0,1-1.381-.967,2.442,2.442,0,0,1-.552-1.8,3.117,3.117,0,0,1,.483-1.726,3.988,3.988,0,0,1,1.519-1.243,6.635,6.635,0,0,1,2.486-.483,6.384,6.384,0,0,1,2,.276,4.385,4.385,0,0,1,1.726.76l-.69,1.657a14.764,14.764,0,0,0-1.519-.69,6.268,6.268,0,0,0-1.588-.207,3.39,3.39,0,0,0-1.864.414,1.244,1.244,0,0,0-.621,1.1.989.989,0,0,0,.345.76,2.757,2.757,0,0,0,.9.483,9.83,9.83,0,0,0,1.45.414,19.486,19.486,0,0,1,2.071.621,3.852,3.852,0,0,1,1.381.967,2.37,2.37,0,0,1,.552,1.726,2.753,2.753,0,0,1-.483,1.657,3.336,3.336,0,0,1-1.519,1.174,6.635,6.635,0,0,1-2.486.483A5.859,5.859,0,0,1,150.633,290.593Z" transform="translate(-46.093 -244.744)" fill="#f9b877"/>
        <path id="Path_42" data-name="Path 42" d="M173.1,279.7h2.071v11.255H173.1Z" transform="translate(-53.645 -244.899)" fill="#f9b877"/>
        <path id="Path_43" data-name="Path 43" d="M191.512,279.7v11.255h-1.726l-6.214-7.664v7.664H181.5V279.7h1.726l6.214,7.664V279.7Z" transform="translate(-56.245 -244.899)" fill="#f9b877"/>
        <path id="Path_44" data-name="Path 44" d="M216.024,285.031h2v4.488a5.038,5.038,0,0,1-2,1.036,7.069,7.069,0,0,1-2.417.345,6.466,6.466,0,0,1-3.107-.76,5.158,5.158,0,0,1-2.141-2.072,5.447,5.447,0,0,1-.76-2.969,6.12,6.12,0,0,1,.76-2.969,5.332,5.332,0,0,1,2.21-2.071,6.67,6.67,0,0,1,3.107-.76,6.027,6.027,0,0,1,2.555.483,4.954,4.954,0,0,1,1.933,1.381l-1.312,1.312a4.562,4.562,0,0,0-5.248-.829,3.988,3.988,0,0,0-1.45,1.381,4.218,4.218,0,0,0-.552,2.071,3.775,3.775,0,0,0,.552,2,3.662,3.662,0,0,0,1.45,1.45,4.17,4.17,0,0,0,2.071.483,5.12,5.12,0,0,0,2.348-.552v-3.452Z" transform="translate(-64.323 -244.775)" fill="#f9b877"/>
        <path id="Path_45" data-name="Path 45" d="M234.207,288.331h-5.662l-1.1,2.624H225.3l5.041-11.255h2.071l5.11,11.255h-2.21Zm-.69-1.657-2.141-4.9-2.141,4.9Z" transform="translate(-69.801 -244.899)" fill="#f9b877"/>
        <path id="Path_46" data-name="Path 46" d="M253.419,290.955l-2.279-3.314h-2.969v3.314H246.1V279.7h4.626a6.028,6.028,0,0,1,2.555.483,3.331,3.331,0,0,1,1.657,1.381,3.678,3.678,0,0,1,.552,2.141,3.943,3.943,0,0,1-.621,2.21,4.058,4.058,0,0,1-1.8,1.381l2.624,3.729h-2.279Zm-.76-8.907a3.087,3.087,0,0,0-2.071-.552h-2.417v4.488h2.417a3.093,3.093,0,0,0,2.071-.621,2.047,2.047,0,0,0,.691-1.657A1.877,1.877,0,0,0,252.66,282.048Z" transform="translate(-76.239 -244.899)" fill="#f9b877"/>
        <path id="Path_47" data-name="Path 47" d="M264,279.7h4.9a6.723,6.723,0,0,1,3.176.69,4.643,4.643,0,0,1,2.141,2,5.926,5.926,0,0,1,.76,2.969,6.12,6.12,0,0,1-.76,2.969,5.45,5.45,0,0,1-2.141,2,6.914,6.914,0,0,1-3.176.69H264Zm4.833,9.46a4.533,4.533,0,0,0,2.21-.483,3.5,3.5,0,0,0,1.45-1.381,3.839,3.839,0,0,0,.483-2.071,4.171,4.171,0,0,0-.483-2.071,3.988,3.988,0,0,0-1.45-1.381,4.533,4.533,0,0,0-2.21-.483h-2.762v7.734h2.762Z" transform="translate(-81.779 -244.899)" fill="#f9b877"/>
        <path id="Path_48" data-name="Path 48" d="M292.724,289.129v1.726H284.3V279.6h8.217v1.726h-6.145v2.9h5.455v1.726h-5.455v3.107l6.353.069Z" transform="translate(-88.062 -244.868)" fill="#f9b877"/>
        <path id="Path_49" data-name="Path 49" d="M310.812,279.7v11.255h-1.726l-6.214-7.664v7.664H300.8V279.7h1.726l6.214,7.664V279.7Z" transform="translate(-93.169 -244.899)" fill="#f9b877"/>
        <path id="Path_50" data-name="Path 50" d="M328,279.7h4.9a6.723,6.723,0,0,1,3.176.69,5,5,0,0,1,2.141,2,6.183,6.183,0,0,1,0,5.938,5,5,0,0,1-2.141,2,6.914,6.914,0,0,1-3.176.69H328Zm4.833,9.46a4.533,4.533,0,0,0,2.21-.483,3.5,3.5,0,0,0,1.45-1.381,3.839,3.839,0,0,0,.483-2.071,4.171,4.171,0,0,0-.483-2.071,3.988,3.988,0,0,0-1.45-1.381,4.533,4.533,0,0,0-2.21-.483h-2.762v7.734h2.762Z" transform="translate(-101.588 -244.899)" fill="#f9b877"/>
        <path id="Path_51" data-name="Path 51" d="M356.624,289.129v1.726H348.2V279.6h8.217v1.726h-6.145v2.9h5.455v1.726h-5.455v3.107l6.352.069Z" transform="translate(-107.84 -244.868)" fill="#f9b877"/>
        <path id="Path_52" data-name="Path 52" d="M365.333,290.593a5.616,5.616,0,0,1-1.933-.967l.76-1.657a5.814,5.814,0,0,0,1.726.9,6.779,6.779,0,0,0,2,.345,3.39,3.39,0,0,0,1.864-.414,1.217,1.217,0,0,0,.621-1.036,1.143,1.143,0,0,0-.345-.829,2.756,2.756,0,0,0-.9-.483,9.831,9.831,0,0,0-1.45-.414,15.533,15.533,0,0,1-2.072-.621,3.853,3.853,0,0,1-1.381-.967,2.442,2.442,0,0,1-.552-1.8,3.117,3.117,0,0,1,.483-1.726,3.988,3.988,0,0,1,1.519-1.243,6.635,6.635,0,0,1,2.486-.483,6.384,6.384,0,0,1,2,.276,4.385,4.385,0,0,1,1.726.76l-.69,1.657a14.774,14.774,0,0,0-1.519-.69A6.268,6.268,0,0,0,368.1,281a3.39,3.39,0,0,0-1.864.414,1.244,1.244,0,0,0-.621,1.1.989.989,0,0,0,.345.76,2.757,2.757,0,0,0,.9.483,9.83,9.83,0,0,0,1.45.414,19.487,19.487,0,0,1,2.071.621,3.852,3.852,0,0,1,1.381.967,2.37,2.37,0,0,1,.552,1.726,2.753,2.753,0,0,1-.483,1.657,3.336,3.336,0,0,1-1.519,1.174,6.635,6.635,0,0,1-2.486.483A6,6,0,0,1,365.333,290.593Z" transform="translate(-112.545 -244.744)" fill="#f9b877"/>
        <path id="Path_53" data-name="Path 53" d="M380.4,279.7h2.072v11.255H380.4Z" transform="translate(-117.806 -244.899)" fill="#f9b877"/>
        <path id="Path_54" data-name="Path 54" d="M396.124,285.031h2v4.488a5.038,5.038,0,0,1-2,1.036,7.069,7.069,0,0,1-2.417.345,6.466,6.466,0,0,1-3.107-.76,5.159,5.159,0,0,1-2.141-2.072,5.447,5.447,0,0,1-.76-2.969,6.121,6.121,0,0,1,.76-2.969,5.332,5.332,0,0,1,2.21-2.071,6.67,6.67,0,0,1,3.107-.76,6.027,6.027,0,0,1,2.555.483,4.954,4.954,0,0,1,1.933,1.381l-1.312,1.312a4.562,4.562,0,0,0-5.248-.829,3.988,3.988,0,0,0-1.45,1.381,4.218,4.218,0,0,0-.552,2.071,3.775,3.775,0,0,0,.552,2,3.662,3.662,0,0,0,1.45,1.45,4.17,4.17,0,0,0,2.071.483,5.12,5.12,0,0,0,2.348-.552Z" transform="translate(-120.066 -244.775)" fill="#f9b877"/>
        <path id="Path_55" data-name="Path 55" d="M417.712,279.7v11.255h-1.726l-6.214-7.664v7.664H407.7V279.7h1.726l6.214,7.664V279.7Z" transform="translate(-126.256 -244.899)" fill="#f9b877"/>
      </g>
    </g>
  </g>
</svg>
