<svg xmlns="http://www.w3.org/2000/svg" width="279.344" height="194.541" viewBox="0 0 279.344 194.541">
  <g id="CBLandscapes_Logo-rgb" data-name="CBLandscapes Logo-rgb" transform="translate(-0.1)">
    <g id="Group_14" data-name="Group 14" transform="translate(158.824)">
      <g id="Group_11" data-name="Group 11" transform="translate(56.302)">
        <path id="Path_143" data-name="Path 143" d="M358.378,56.2a17.9,17.9,0,1,0,.2-35.8L327.5,20.2V30.646l30.483.066a7.712,7.712,0,0,1,7.621,7.621,7.354,7.354,0,0,1-2.3,5.321,7.772,7.772,0,0,1-5.387,2.168h-.066L327.5,45.756V56l30.746.2Z" transform="translate(-327.434 -6.929)" fill="#b17e55"/>
        <path id="Path_144" data-name="Path 144" d="M357.818,49.552a3.721,3.721,0,0,0,2.694-1.117,4.069,4.069,0,0,0,1.183-2.694,3.913,3.913,0,0,0-3.81-3.876L327.4,41.8v7.621l30.418.131Z" transform="translate(-327.4 -14.339)" fill="#b17e55"/>
        <path id="Path_145" data-name="Path 145" d="M359.132,0H327.4V9.526l31.14.2a21.68,21.68,0,1,1-.2,43.36h-.2l-30.746-.2V63.069l31.14.263a31.747,31.747,0,0,0,32.192-31.206A31.936,31.936,0,0,0,359.132,0Z" transform="translate(-327.4)" fill="#b17e55"/>
      </g>
      <g id="Group_12" data-name="Group 12" transform="translate(56.302 67.011)">
        <path id="Path_146" data-name="Path 146" d="M358.378,158.2a17.9,17.9,0,1,0,.2-35.8l-31.075-.2v10.446l30.483.066a7.712,7.712,0,0,1,7.621,7.621,7.354,7.354,0,0,1-2.3,5.321,7.772,7.772,0,0,1-5.387,2.168h-.066l-30.352-.066V158l30.746.2Z" transform="translate(-327.434 -108.929)" fill="#b17e55"/>
        <path id="Path_147" data-name="Path 147" d="M357.818,151.552a3.721,3.721,0,0,0,2.694-1.117,4.069,4.069,0,0,0,1.183-2.694,3.913,3.913,0,0,0-3.81-3.876L327.4,143.8v7.621l30.418.131Z" transform="translate(-327.4 -116.339)" fill="#b17e55"/>
        <path id="Path_148" data-name="Path 148" d="M359.132,102H327.4v9.526l31.14.2a21.68,21.68,0,1,1-.2,43.36h-.2l-30.746-.2v10.183l31.14.263A31.668,31.668,0,1,0,359.132,102Z" transform="translate(-327.4 -102)" fill="#b17e55"/>
      </g>
      <g id="Group_13" data-name="Group 13">
        <path id="Path_149" data-name="Path 149" d="M289.922,81.6l-8.409,8.409L273.1,81.6l-8.409,8.409L256.285,81.6l-8.343,8.409L241.7,83.768v15.5l6.044,6.044,8.344-8.409,8.409,8.409,8.409-8.409,8.409,8.409,8.409-8.409,4.073,4.139v-15.5Z" transform="translate(-241.7 -27.991)" fill="#b17e55"/>
        <path id="Path_150" data-name="Path 150" d="M289.922,50.6l-8.409,8.344L273.1,50.6l-8.409,8.344L256.285,50.6l-8.343,8.344L241.7,52.7V68.01l6.241,6.241,8.343-8.344,8.409,8.344,8.409-8.344,8.409,8.344,8.409-8.344,3.876,3.876V54.476Z" transform="translate(-241.7 -17.357)" fill="#b17e55"/>
        <path id="Path_151" data-name="Path 151" d="M256.088,159.042l8.409,8.409,8.409-8.409,8.409,8.409,8.409-8.409,4.073,4.139V147.873l-4.073-4.073-8.409,8.344-8.409-8.344-8.409,8.344-8.409-8.344-8.344,8.344L241.7,146.1v15.307l6.044,6.044Z" transform="translate(-241.7 -49.328)" fill="#b17e55"/>
        <path id="Path_152" data-name="Path 152" d="M289.724,112.7l-8.409,8.343-8.409-8.343-8.409,8.343-8.409-8.343-8.344,8.343-6.044-5.978v15.307l6.044,5.978,8.344-8.344,8.409,8.344,8.409-8.344,8.409,8.344,8.409-8.344,4.073,4.073V116.839Z" transform="translate(-241.7 -38.66)" fill="#b17e55"/>
        <path id="Path_153" data-name="Path 153" d="M289.724,174.8l-8.409,8.409-8.409-8.409-8.409,8.409-8.409-8.409-8.344,8.409-6.044-6.044V190.3h52.1V178.939Z" transform="translate(-241.7 -59.962)" fill="#b17e55"/>
        <path id="Path_154" data-name="Path 154" d="M289.922,19.5l-8.409,8.344L273.1,19.5l-8.409,8.344L256.285,19.5l-8.343,8.344L241.7,21.668V36.975l6.241,6.176,8.343-8.344,8.409,8.344,8.409-8.344,8.409,8.344,8.409-8.344,3.876,3.876V23.442Z" transform="translate(-241.7 -6.689)" fill="#b17e55"/>
        <path id="Path_155" data-name="Path 155" d="M247.941,16.1l8.343-8.409,8.409,8.409L273.1,7.687l8.409,8.409,8.409-8.409,3.876,3.942V0H241.7V9.855Z" transform="translate(-241.7)" fill="#b17e55"/>
      </g>
    </g>
    <g id="Group_15" data-name="Group 15" transform="translate(0.954)">
      <path id="Path_156" data-name="Path 156" d="M16.773,65.171a50.063,50.063,0,0,1,49.8-50V0a65.171,65.171,0,1,0,0,130.343V115.167A50.02,50.02,0,0,1,16.773,65.171Z" transform="translate(-1.4)" fill="#8c8c48"/>
      <path id="Path_157" data-name="Path 157" d="M60.1,85.273a26.692,26.692,0,0,0,26.607,26.673V95.522a10.25,10.25,0,0,1,0-20.5V58.6A26.763,26.763,0,0,0,60.1,85.273Z" transform="translate(-21.536 -20.102)" fill="#8c8c48"/>
      <path id="Path_158" data-name="Path 158" d="M30.5,75.051A46.32,46.32,0,0,0,76.554,121.3V105.468a30.418,30.418,0,0,1-.066-60.835V28.8A46.306,46.306,0,0,0,30.5,75.051Z" transform="translate(-11.382 -9.879)" fill="#8c8c48"/>
      <rect id="Rectangle_116" data-name="Rectangle 116" width="54.923" height="15.176" transform="translate(69.376)" fill="#8c8c48"/>
      <rect id="Rectangle_117" data-name="Rectangle 117" width="54.923" height="15.833" transform="translate(69.376 18.921)" fill="#8c8c48"/>
      <path id="Path_159" data-name="Path 159" d="M145.564,75.124H107V58.7h54.923A16.416,16.416,0,0,1,145.564,75.124Z" transform="translate(-37.624 -20.136)" fill="#8c8c48"/>
      <rect id="Rectangle_118" data-name="Rectangle 118" width="54.923" height="15.176" transform="translate(69.376 115.167)" fill="#8c8c48"/>
      <rect id="Rectangle_119" data-name="Rectangle 119" width="54.923" height="15.833" transform="translate(69.376 95.589)" fill="#8c8c48"/>
      <path id="Path_160" data-name="Path 160" d="M145.564,114.8H107v16.424h54.923A16.374,16.374,0,0,0,145.564,114.8Z" transform="translate(-37.624 -39.38)" fill="#8c8c48"/>
    </g>
    <g id="Group_17" data-name="Group 17" transform="translate(0.1 150.643)">
      <g id="Group_16" data-name="Group 16">
        <path id="Path_161" data-name="Path 161" d="M6.078,251.211a10.712,10.712,0,0,1-4.4-4.139A11.518,11.518,0,0,1,.1,241.028a11.684,11.684,0,0,1,1.577-6.044,11.128,11.128,0,0,1,4.4-4.139,13.582,13.582,0,0,1,6.373-1.445,14.631,14.631,0,0,1,5.781,1.117,10.927,10.927,0,0,1,4.2,3.285l-4.73,4.2a6.221,6.221,0,0,0-4.862-2.628,5.146,5.146,0,0,0-3.81,1.511,5.8,5.8,0,0,0-1.445,4.073,5.625,5.625,0,0,0,1.445,4.073,5.044,5.044,0,0,0,3.81,1.511,6.038,6.038,0,0,0,4.862-2.628l4.73,4.2a10.34,10.34,0,0,1-4.2,3.285,13.561,13.561,0,0,1-5.781,1.117A11.388,11.388,0,0,1,6.078,251.211Z" transform="translate(-0.1 -229.334)" fill="#b17e55"/>
        <path id="Path_162" data-name="Path 162" d="M58.126,243.045a5.236,5.236,0,0,1,1.051,3.351,5.039,5.039,0,0,1-2.431,4.533c-1.577,1.051-3.942,1.577-6.964,1.577H37.3V230.3H49.191q4.435,0,6.7,1.577a4.971,4.971,0,0,1,2.3,4.2,5.126,5.126,0,0,1-3.088,4.8A6.543,6.543,0,0,1,58.126,243.045ZM44.658,235.49v3.285H48.14c1.642,0,2.431-.526,2.431-1.642s-.788-1.642-2.431-1.642Zm7.03,10.052c0-1.183-.854-1.774-2.5-1.774H44.658v3.482h4.533C50.834,247.25,51.688,246.659,51.688,245.542Z" transform="translate(-12.861 -229.643)" fill="#b17e55"/>
        <path id="Path_163" data-name="Path 163" d="M74.7,230.3h7.489v16.424H92.241v5.781H74.7Z" transform="translate(-25.69 -229.643)" fill="#8c8c48"/>
        <path id="Path_164" data-name="Path 164" d="M118.807,248.63h-8.475l-1.511,3.876H101.2l9.723-22.206h7.358L128,252.506h-7.752Zm-2.037-5.387-2.168-5.584-2.168,5.584Z" transform="translate(-34.78 -229.643)" fill="#8c8c48"/>
        <path id="Path_165" data-name="Path 165" d="M165.843,230.3v22.206h-6.175l-8.475-10.117v10.117H143.9V230.3h6.175l8.475,10.117V230.3Z" transform="translate(-49.428 -229.643)" fill="#8c8c48"/>
        <path id="Path_166" data-name="Path 166" d="M182.8,230.3h10.971a14.867,14.867,0,0,1,6.57,1.38,10.133,10.133,0,0,1,4.4,3.876,10.736,10.736,0,0,1,1.577,5.913,11.051,11.051,0,0,1-1.577,5.913,10.563,10.563,0,0,1-4.4,3.876,14.868,14.868,0,0,1-6.57,1.38H182.8Zm10.643,16.359a5.489,5.489,0,0,0,3.876-1.38,5.92,5.92,0,0,0,0-7.752,5.38,5.38,0,0,0-3.876-1.38h-3.153v10.512Z" transform="translate(-62.772 -229.643)" fill="#8c8c48"/>
        <path id="Path_167" data-name="Path 167" d="M224.87,252.031a14.489,14.489,0,0,1-4.27-1.642l2.431-5.453a14.333,14.333,0,0,0,3.548,1.445,12.99,12.99,0,0,0,3.81.526,5.9,5.9,0,0,0,2.234-.329.959.959,0,0,0,.657-.92c0-.46-.263-.788-.854-1.051a20.022,20.022,0,0,0-2.891-.788,22.879,22.879,0,0,1-4.27-1.182,7.055,7.055,0,0,1-2.956-2.037,5.442,5.442,0,0,1-1.248-3.81,6.542,6.542,0,0,1,1.183-3.81,8.148,8.148,0,0,1,3.482-2.694,14.5,14.5,0,0,1,5.65-.985,20.219,20.219,0,0,1,4.467.46,13.563,13.563,0,0,1,3.876,1.445l-2.234,5.453a13.59,13.59,0,0,0-6.175-1.642c-1.905,0-2.891.46-2.891,1.38,0,.46.263.788.854.985a23.735,23.735,0,0,0,2.825.723,23.325,23.325,0,0,1,4.27,1.117,7.263,7.263,0,0,1,3.022,2.037,5.473,5.473,0,0,1,1.314,3.81,6.542,6.542,0,0,1-1.183,3.81,8.147,8.147,0,0,1-3.482,2.694,14.5,14.5,0,0,1-5.65.986A16.975,16.975,0,0,1,224.87,252.031Z" transform="translate(-75.738 -229.3)" fill="#8c8c48"/>
        <path id="Path_168" data-name="Path 168" d="M259.178,251.211a10.712,10.712,0,0,1-4.4-4.139,11.518,11.518,0,0,1-1.577-6.044,11.685,11.685,0,0,1,1.577-6.044,11.128,11.128,0,0,1,4.4-4.139,13.582,13.582,0,0,1,6.373-1.445,14.631,14.631,0,0,1,5.781,1.117,10.927,10.927,0,0,1,4.2,3.285l-4.73,4.2a6.221,6.221,0,0,0-4.862-2.628,5.146,5.146,0,0,0-3.81,1.511,5.8,5.8,0,0,0-1.445,4.073,5.625,5.625,0,0,0,1.445,4.073,5.044,5.044,0,0,0,3.81,1.511,6.038,6.038,0,0,0,4.862-2.628l4.73,4.2a10.341,10.341,0,0,1-4.2,3.285,13.561,13.561,0,0,1-5.781,1.117A11.388,11.388,0,0,1,259.178,251.211Z" transform="translate(-86.921 -229.334)" fill="#8c8c48"/>
        <path id="Path_169" data-name="Path 169" d="M303.807,248.63h-8.475l-1.511,3.876H286.2l9.723-22.206h7.358L313,252.506h-7.752Zm-2.1-5.387-2.168-5.584-2.168,5.584Z" transform="translate(-98.241 -229.643)" fill="#8c8c48"/>
        <path id="Path_170" data-name="Path 170" d="M344.9,231.251a8.153,8.153,0,0,1,3.548,2.891,7.747,7.747,0,0,1,1.248,4.467,7.893,7.893,0,0,1-1.248,4.467,7.794,7.794,0,0,1-3.548,2.891,13.371,13.371,0,0,1-5.387.986h-3.219v5.453H328.8V230.2h10.709A14.552,14.552,0,0,1,344.9,231.251Zm-3.548,9.329a2.43,2.43,0,0,0,.788-1.905,2.339,2.339,0,0,0-.788-1.905,3.317,3.317,0,0,0-2.3-.657h-2.759v5.19h2.759A4.138,4.138,0,0,0,341.348,240.58Z" transform="translate(-112.854 -229.609)" fill="#8c8c48"/>
        <path id="Path_171" data-name="Path 171" d="M382.761,246.856v5.65H364.3V230.3h18.067v5.65H371.658v2.628h9.395v5.387h-9.395v2.891Z" transform="translate(-125.032 -229.643)" fill="#8c8c48"/>
        <path id="Path_172" data-name="Path 172" d="M398.97,252.031a14.489,14.489,0,0,1-4.27-1.642l2.431-5.453a14.332,14.332,0,0,0,3.548,1.445,12.99,12.99,0,0,0,3.81.526,5.9,5.9,0,0,0,2.234-.329.959.959,0,0,0,.657-.92c0-.46-.263-.788-.854-1.051a20.024,20.024,0,0,0-2.891-.788,22.882,22.882,0,0,1-4.27-1.182,7.055,7.055,0,0,1-2.956-2.037,5.443,5.443,0,0,1-1.248-3.81,6.543,6.543,0,0,1,1.183-3.81,8.148,8.148,0,0,1,3.482-2.694,14.5,14.5,0,0,1,5.65-.985,20.219,20.219,0,0,1,4.467.46,13.564,13.564,0,0,1,3.876,1.445l-2.234,5.453a13.59,13.59,0,0,0-6.176-1.642c-1.905,0-2.891.46-2.891,1.38,0,.46.263.788.854.985a23.734,23.734,0,0,0,2.825.723,23.326,23.326,0,0,1,4.27,1.117,7.264,7.264,0,0,1,3.022,2.037,5.473,5.473,0,0,1,1.314,3.81,6.543,6.543,0,0,1-1.183,3.81,8.148,8.148,0,0,1-3.482,2.694,14.5,14.5,0,0,1-5.65.986A16.975,16.975,0,0,1,398.97,252.031Z" transform="translate(-135.46 -229.3)" fill="#8c8c48"/>
        <path id="Path_173" data-name="Path 173" d="M2.74,290.04a5.342,5.342,0,0,1-1.84-.92l.657-1.577A5.531,5.531,0,0,0,3.2,288.4a6.451,6.451,0,0,0,1.905.328,3.226,3.226,0,0,0,1.774-.394,1.158,1.158,0,0,0,.591-.986,1.088,1.088,0,0,0-.328-.788,2.623,2.623,0,0,0-.854-.46,9.354,9.354,0,0,0-1.38-.394,14.77,14.77,0,0,1-1.971-.591,3.666,3.666,0,0,1-1.314-.92,2.323,2.323,0,0,1-.526-1.708,2.965,2.965,0,0,1,.46-1.642A3.794,3.794,0,0,1,3,279.66a6.313,6.313,0,0,1,2.365-.46,6.075,6.075,0,0,1,1.905.263,4.174,4.174,0,0,1,1.642.723l-.657,1.577a14.061,14.061,0,0,0-1.445-.657,5.963,5.963,0,0,0-1.511-.2,3.225,3.225,0,0,0-1.774.394,1.184,1.184,0,0,0-.591,1.051.941.941,0,0,0,.328.723,2.623,2.623,0,0,0,.854.46,9.355,9.355,0,0,0,1.38.394,18.555,18.555,0,0,1,1.971.591,3.666,3.666,0,0,1,1.314.92,2.255,2.255,0,0,1,.526,1.642,2.619,2.619,0,0,1-.46,1.577A3.173,3.173,0,0,1,7.4,289.777a6.312,6.312,0,0,1-2.365.46A5.4,5.4,0,0,1,2.74,290.04Z" transform="translate(-0.374 -246.417)" fill="#8c8c48"/>
        <path id="Path_174" data-name="Path 174" d="M24.732,280.16a3.387,3.387,0,0,1,2.1,3.351,4.078,4.078,0,0,1-.526,2.037,3.417,3.417,0,0,1-1.577,1.314,5.541,5.541,0,0,1-2.431.46H19.871v3.088H17.9V279.7h4.4A5.734,5.734,0,0,1,24.732,280.16Zm-.591,4.927a2.221,2.221,0,0,0,0-3.154,2.937,2.937,0,0,0-1.971-.526h-2.3v4.27h2.3A3.687,3.687,0,0,0,24.141,285.087Z" transform="translate(-6.206 -246.589)" fill="#8c8c48"/>
        <path id="Path_175" data-name="Path 175" d="M43.515,288.666v1.642H35.5V279.6h7.818v1.642H37.471V284h5.19v1.642h-5.19V288.6l6.044.066Z" transform="translate(-12.243 -246.554)" fill="#8c8c48"/>
        <path id="Path_176" data-name="Path 176" d="M53.659,289.714a4.908,4.908,0,0,1-2.037-1.971,5.182,5.182,0,0,1-.723-2.825,5.823,5.823,0,0,1,.723-2.825,5.328,5.328,0,0,1,2.037-1.971,6.152,6.152,0,0,1,2.956-.723,5.939,5.939,0,0,1,2.431.46,5.25,5.25,0,0,1,1.84,1.314l-1.314,1.183a3.691,3.691,0,0,0-2.891-1.248,3.967,3.967,0,0,0-1.971.46,3.793,3.793,0,0,0-1.38,1.314,4.453,4.453,0,0,0,0,3.942,2.965,2.965,0,0,0,1.38,1.314,3.968,3.968,0,0,0,1.971.46,3.786,3.786,0,0,0,2.891-1.248l1.314,1.248a4.532,4.532,0,0,1-1.84,1.314,5.734,5.734,0,0,1-2.431.46A4.935,4.935,0,0,1,53.659,289.714Z" transform="translate(-17.526 -246.486)" fill="#8c8c48"/>
        <path id="Path_177" data-name="Path 177" d="M69.9,279.7h1.971v10.709H69.9Z" transform="translate(-24.044 -246.589)" fill="#8c8c48"/>
        <path id="Path_178" data-name="Path 178" d="M84.375,287.912H78.988l-1.051,2.5H75.9L80.7,279.7h1.971l4.862,10.709h-2.1Zm-.657-1.577-2.037-4.665-2.037,4.665Z" transform="translate(-26.102 -246.589)" fill="#8c8c48"/>
        <path id="Path_179" data-name="Path 179" d="M96.7,279.7h1.971v9.066h5.584v1.708H96.7Z" transform="translate(-33.237 -246.589)" fill="#8c8c48"/>
        <path id="Path_180" data-name="Path 180" d="M111.6,279.7h1.971v10.709H111.6Z" transform="translate(-38.348 -246.589)" fill="#8c8c48"/>
        <path id="Path_181" data-name="Path 181" d="M120.34,290.04a5.342,5.342,0,0,1-1.839-.92l.657-1.577a5.531,5.531,0,0,0,1.642.854,6.451,6.451,0,0,0,1.905.328,3.226,3.226,0,0,0,1.774-.394,1.158,1.158,0,0,0,.591-.986,1.088,1.088,0,0,0-.329-.788,2.623,2.623,0,0,0-.854-.46,9.353,9.353,0,0,0-1.38-.394,14.771,14.771,0,0,1-1.971-.591,3.666,3.666,0,0,1-1.314-.92,2.324,2.324,0,0,1-.526-1.708,2.965,2.965,0,0,1,.46-1.642,3.794,3.794,0,0,1,1.445-1.183,6.313,6.313,0,0,1,2.365-.46,6.074,6.074,0,0,1,1.905.263,4.174,4.174,0,0,1,1.642.723l-.657,1.577a14.064,14.064,0,0,0-1.445-.657,5.963,5.963,0,0,0-1.511-.2,3.226,3.226,0,0,0-1.774.394,1.184,1.184,0,0,0-.591,1.051.941.941,0,0,0,.328.723,2.624,2.624,0,0,0,.854.46,9.356,9.356,0,0,0,1.38.394,18.558,18.558,0,0,1,1.971.591,3.666,3.666,0,0,1,1.314.92,2.255,2.255,0,0,1,.526,1.642,2.619,2.619,0,0,1-.46,1.577A3.173,3.173,0,0,1,125,289.777a6.312,6.312,0,0,1-2.365.46A5.575,5.575,0,0,1,120.34,290.04Z" transform="translate(-40.715 -246.417)" fill="#8c8c48"/>
        <path id="Path_182" data-name="Path 182" d="M136.748,281.308H133.2V279.6h9.132v1.708h-3.548v9.066h-1.971v-9.066Z" transform="translate(-45.757 -246.554)" fill="#8c8c48"/>
        <path id="Path_183" data-name="Path 183" d="M150.54,290.04a5.342,5.342,0,0,1-1.839-.92l.657-1.577A5.531,5.531,0,0,0,151,288.4a6.451,6.451,0,0,0,1.905.328,3.226,3.226,0,0,0,1.774-.394,1.158,1.158,0,0,0,.591-.986,1.088,1.088,0,0,0-.328-.788,2.624,2.624,0,0,0-.854-.46,9.354,9.354,0,0,0-1.38-.394,14.77,14.77,0,0,1-1.971-.591,3.666,3.666,0,0,1-1.314-.92,2.324,2.324,0,0,1-.526-1.708,2.965,2.965,0,0,1,.46-1.642,3.794,3.794,0,0,1,1.445-1.183,6.313,6.313,0,0,1,2.365-.46,6.075,6.075,0,0,1,1.905.263,4.173,4.173,0,0,1,1.642.723l-.657,1.577a14.057,14.057,0,0,0-1.445-.657,5.962,5.962,0,0,0-1.511-.2,3.225,3.225,0,0,0-1.774.394,1.184,1.184,0,0,0-.591,1.051.941.941,0,0,0,.328.723,2.623,2.623,0,0,0,.854.46,9.355,9.355,0,0,0,1.38.394,18.555,18.555,0,0,1,1.971.591,3.666,3.666,0,0,1,1.314.92,2.255,2.255,0,0,1,.526,1.642,2.619,2.619,0,0,1-.46,1.577,3.173,3.173,0,0,1-1.445,1.117,6.312,6.312,0,0,1-2.365.46A5.575,5.575,0,0,1,150.54,290.04Z" transform="translate(-51.074 -246.417)" fill="#8c8c48"/>
        <path id="Path_184" data-name="Path 184" d="M173.1,279.7h1.971v10.709H173.1Z" transform="translate(-59.444 -246.589)" fill="#8c8c48"/>
        <path id="Path_185" data-name="Path 185" d="M191.026,279.7v10.709h-1.642l-5.913-7.292v7.292H181.5V279.7h1.642l5.913,7.292V279.7Z" transform="translate(-62.326 -246.589)" fill="#8c8c48"/>
        <path id="Path_186" data-name="Path 186" d="M215.615,284.753h1.905v4.27a4.793,4.793,0,0,1-1.905.986,6.724,6.724,0,0,1-2.3.328,6.152,6.152,0,0,1-2.956-.723,4.908,4.908,0,0,1-2.037-1.971,5.182,5.182,0,0,1-.723-2.825,5.824,5.824,0,0,1,.723-2.825,5.072,5.072,0,0,1,2.1-1.971,6.345,6.345,0,0,1,2.956-.723,5.734,5.734,0,0,1,2.431.46,4.713,4.713,0,0,1,1.839,1.314l-1.248,1.248a4.34,4.34,0,0,0-4.993-.788,3.794,3.794,0,0,0-1.38,1.314,4.013,4.013,0,0,0-.526,1.971,3.592,3.592,0,0,0,.526,1.905,3.484,3.484,0,0,0,1.38,1.38,3.968,3.968,0,0,0,1.971.46,4.872,4.872,0,0,0,2.234-.526v-3.285Z" transform="translate(-71.279 -246.452)" fill="#b17e55"/>
        <path id="Path_187" data-name="Path 187" d="M233.775,287.912h-5.387l-1.051,2.5H225.3l4.8-10.709h1.971l4.862,10.709h-2.1Zm-.657-1.577-2.037-4.665-2.037,4.665Z" transform="translate(-77.35 -246.589)" fill="#b17e55"/>
        <path id="Path_188" data-name="Path 188" d="M253.064,290.409l-2.168-3.153h-2.825v3.153H246.1V279.7h4.4a5.735,5.735,0,0,1,2.431.46,3.169,3.169,0,0,1,1.577,1.314,3.5,3.5,0,0,1,.526,2.037,3.751,3.751,0,0,1-.591,2.1,3.86,3.86,0,0,1-1.708,1.314l2.5,3.548h-2.168v-.066Zm-.723-8.475a2.937,2.937,0,0,0-1.971-.526h-2.3v4.27h2.3a2.943,2.943,0,0,0,1.971-.591A1.948,1.948,0,0,0,253,283.51,1.786,1.786,0,0,0,252.341,281.934Z" transform="translate(-84.485 -246.589)" fill="#b17e55"/>
        <path id="Path_189" data-name="Path 189" d="M264,279.7h4.664a6.4,6.4,0,0,1,3.022.657,4.418,4.418,0,0,1,2.037,1.905,5.639,5.639,0,0,1,.723,2.825,5.824,5.824,0,0,1-.723,2.825,5.186,5.186,0,0,1-2.037,1.905,6.578,6.578,0,0,1-3.022.657H264Zm4.6,9a4.312,4.312,0,0,0,2.1-.46,3.326,3.326,0,0,0,1.38-1.314,3.652,3.652,0,0,0,.46-1.971,3.968,3.968,0,0,0-.46-1.971,3.794,3.794,0,0,0-1.38-1.314,4.313,4.313,0,0,0-2.1-.46h-2.628v7.358H268.6Z" transform="translate(-90.626 -246.589)" fill="#b17e55"/>
        <path id="Path_190" data-name="Path 190" d="M292.315,288.666v1.642H284.3V279.6h7.818v1.642h-5.847V284h5.19v1.642h-5.19V288.6l6.044.066Z" transform="translate(-97.589 -246.554)" fill="#b17e55"/>
        <path id="Path_191" data-name="Path 191" d="M310.326,279.7v10.709h-1.642l-5.913-7.292v7.292H300.8V279.7h1.642l5.913,7.292V279.7Z" transform="translate(-103.249 -246.589)" fill="#b17e55"/>
        <path id="Path_192" data-name="Path 192" d="M328,279.7h4.664a6.4,6.4,0,0,1,3.022.657,4.758,4.758,0,0,1,2.037,1.905,5.883,5.883,0,0,1,0,5.65,4.758,4.758,0,0,1-2.037,1.905,6.578,6.578,0,0,1-3.022.657H328Zm4.6,9a4.313,4.313,0,0,0,2.1-.46,3.326,3.326,0,0,0,1.38-1.314,3.652,3.652,0,0,0,.46-1.971,3.968,3.968,0,0,0-.46-1.971,3.8,3.8,0,0,0-1.38-1.314,4.314,4.314,0,0,0-2.1-.46h-2.628v7.358H332.6Z" transform="translate(-112.58 -246.589)" fill="#b17e55"/>
        <path id="Path_193" data-name="Path 193" d="M356.215,288.666v1.642H348.2V279.6h7.818v1.642h-5.847V284h5.19v1.642h-5.19V288.6l6.044.066Z" transform="translate(-119.509 -246.554)" fill="#b17e55"/>
        <path id="Path_194" data-name="Path 194" d="M365.24,290.04a5.342,5.342,0,0,1-1.84-.92l.723-1.577a5.532,5.532,0,0,0,1.642.854,6.452,6.452,0,0,0,1.905.328,3.225,3.225,0,0,0,1.774-.394,1.158,1.158,0,0,0,.591-.986,1.088,1.088,0,0,0-.329-.788,2.623,2.623,0,0,0-.854-.46,9.359,9.359,0,0,0-1.38-.394,14.763,14.763,0,0,1-1.971-.591,3.666,3.666,0,0,1-1.314-.92,2.323,2.323,0,0,1-.526-1.708,2.966,2.966,0,0,1,.46-1.642,3.794,3.794,0,0,1,1.445-1.183,6.313,6.313,0,0,1,2.365-.46,6.075,6.075,0,0,1,1.905.263,4.175,4.175,0,0,1,1.642.723l-.657,1.577a14.055,14.055,0,0,0-1.445-.657,5.962,5.962,0,0,0-1.511-.2,3.225,3.225,0,0,0-1.774.394,1.184,1.184,0,0,0-.591,1.051.941.941,0,0,0,.329.723,2.622,2.622,0,0,0,.854.46,9.361,9.361,0,0,0,1.38.394,18.544,18.544,0,0,1,1.971.591,3.665,3.665,0,0,1,1.314.92,2.255,2.255,0,0,1,.526,1.642,2.618,2.618,0,0,1-.46,1.577,3.174,3.174,0,0,1-1.445,1.117,6.312,6.312,0,0,1-2.365.46A5.7,5.7,0,0,1,365.24,290.04Z" transform="translate(-124.723 -246.417)" fill="#b17e55"/>
        <path id="Path_195" data-name="Path 195" d="M380.4,279.7h1.971v10.709H380.4Z" transform="translate(-130.554 -246.589)" fill="#b17e55"/>
        <path id="Path_196" data-name="Path 196" d="M395.715,284.753h1.905v4.27a4.792,4.792,0,0,1-1.905.986,6.724,6.724,0,0,1-2.3.328,6.152,6.152,0,0,1-2.956-.723,4.908,4.908,0,0,1-2.037-1.971,5.182,5.182,0,0,1-.723-2.825,5.823,5.823,0,0,1,.723-2.825,5.071,5.071,0,0,1,2.1-1.971,6.345,6.345,0,0,1,2.956-.723,5.734,5.734,0,0,1,2.431.46,4.713,4.713,0,0,1,1.84,1.314l-1.248,1.248a4.34,4.34,0,0,0-4.993-.788,3.8,3.8,0,0,0-1.38,1.314,4.014,4.014,0,0,0-.526,1.971,3.592,3.592,0,0,0,.526,1.905,3.484,3.484,0,0,0,1.38,1.38,3.968,3.968,0,0,0,1.971.46,4.872,4.872,0,0,0,2.234-.526Z" transform="translate(-133.059 -246.452)" fill="#b17e55"/>
        <path id="Path_197" data-name="Path 197" d="M417.226,279.7v10.709h-1.642l-5.913-7.292v7.292H407.7V279.7h1.642l5.913,7.292V279.7Z" transform="translate(-139.919 -246.589)" fill="#b17e55"/>
      </g>
    </g>
  </g>
</svg>
